<svg version="1" xmlns="http://www.w3.org/2000/svg" width="933.333" height="933.333" viewBox="0 0 700.000000 700.000000"><path d="M272.5 53.1c-8.9 1.1-22.1 5-28.6 8.5-10.4 5.7-18.4 16.2-21.5 28.4-2.1 8.5-2.1 26.1.1 33.1 1.3 3.9-.3 1.7-2-2.9-7.3-19.3-17-32-28.9-37.6-20.4-9.6-47.8-2.3-83.1 22.2-7 4.8-20.1 14.7-21.5 16.2-.3.3-3.2 2.7-6.5 5.5-6.6 5.4-11.3 9.7-21.7 19.5-3.8 3.6-7.4 6.6-7.9 6.8-1.8.7-.8 2.3 6.8 10.3 4.3 4.5 8.7 9.2 9.8 10.3 2.1 2.3 12.9 14.8 18.3 21.2 26.1 31.3 52.6 74.3 65.2 105.8 7 17.7 14.8 43.7 16.5 55 .3 2.1.7 4.8 1 6 3.5 15.7 4.2 62 1.1 77.2-.2 1.2-.7 4.4-1.1 7.2-.3 2.9-1 6.5-1.5 8.2-.5 1.6-.7 3-.5 3 .3 0 0 1.1-.5 2.5s-1.2 3.6-1.4 4.9c-3.2 17.7-17.3 53.3-30.6 77-16 28.9-41.1 63.2-64 87.6-4.6 4.9-8.8 9.7-7.5 8.7.6-.5 4.8-4.3 9.4-8.5 11.8-10.8 12.2-11.2 25.6-22.1 32.2-26.2 61.2-44 98-60.2 11.9-5.2 33.8-12.2 47-15 3.3-.7 6.2-1.3 6.5-1.4 5.6-1.4 16.7-2.8 30.5-4 7.9-.7 32.7-.8 36.5-.1 1.4.2 5.5.7 9.2 1.1 3.7.3 7.7.8 9 1 11.4 1.9 16.7 3 25.2 5.1 9 2.3 23 6.5 26.6 8.1.8.3 1.7.7 2 .7 1.1.2 7.8 3 12.8 5.2 2.9 1.3 5.5 2.4 5.8 2.4.7 0 24.7 12 29.4 14.7 34 19.5 64.6 42.9 98.8 75.5 10 9.6 11.7 10.8 12.4 8.9.2-.6 3.9-4.7 8.4-9.3 7.2-7.4 12.8-13.5 21.3-23.3 13.3-15.3 27.4-35.6 34.9-50.2 21.2-41.6 12.1-70.3-27.3-85.8-6.9-2.7-10.1-4.4-5.9-3.1 7.3 2.2 24 2.7 32.9.9 13-2.7 24.1-10.6 30.5-21.8 3.5-6.2 7.7-20.4 8.8-30.4 1.3-11.1.6-36-1.3-47.1-.2-1.4-.7-4.5-1-7-1.2-10.2-4.9-28.7-9.1-46-21.3-87.2-52-130.3-92.9-130.3-22.8 0-49.4 13.1-75.7 37.3-5.9 5.4-10.6 8.6-5.8 3.9 7-6.8 19.8-24 26.3-35.4 11.1-19.3 16-39.8 13.2-55-3.9-21-20.2-40.1-47-54.9-13.2-7.4-40.7-18-57.5-22.2-10.8-2.7-34.8-8.3-37.8-8.9-1.5-.3-3.8-.7-5.2-1-2.9-.7-17.2-3.1-22.7-3.9-2.1-.3-7.2-1.1-11.3-1.7-9.9-1.4-41.6-1.9-50.5-.8z"/></svg>